<?xml version="1.0"?>
<svg xmlns="http://www.w3.org/2000/svg" viewBox="0 0 512 512" width="512" height="512"><g id="filled_outline" data-name="filled outline"><path d="M69.81,312,26.237,347.085a6,6,0,0,0-1.107,8.178l.968,1.344a31,31,0,0,0,45.336,5.43L101.81,336Z" style="fill:#3775a4"/><path d="M442.19,312l43.573,35.085a6,6,0,0,1,1.107,8.178l-.968,1.344a31,31,0,0,1-45.336,5.43L410.19,336Z" style="fill:#3775a4"/><path d="M289.146,178.292l-3.789.585a195.945,195.945,0,0,1-61.6-.293h0A195.963,195.963,0,0,0,192.035,176H81.941A81.941,81.941,0,0,0,24,200h0v24l24,24,168,16,16.745-33.49c9.582-19.163,36.928-19.163,46.51,0L296,264l168-16,24-24V200h0a81.941,81.941,0,0,0-57.941-24H319.029A195.922,195.922,0,0,0,289.146,178.292Z" style="fill:#428dc5"/><path d="M216,236v32a84,84,0,0,1-168,0V254a46,46,0,0,1,46-46h94A28.005,28.005,0,0,1,216,236Z" style="fill:#6cbae5"/><path d="M208,244v32a83.686,83.686,0,0,1-20.73,55.27A84.012,84.012,0,0,1,48,268V254a45.8,45.8,0,0,1,9.72-28.28A45.8,45.8,0,0,1,86,216h94A28.005,28.005,0,0,1,208,244Z" style="fill:#73c7f5"/><path d="M464,254v14a84,84,0,0,1-168,0V236a28,28,0,0,1,28-28h94A45.994,45.994,0,0,1,464,254Z" style="fill:#6cbae5"/><path d="M456,262v14a83.686,83.686,0,0,1-20.73,55.27A84.012,84.012,0,0,1,296,268V236a27.9,27.9,0,0,1,4.61-15.39A27.9,27.9,0,0,1,316,216h94A45.994,45.994,0,0,1,456,262Z" style="fill:#73c7f5"/><path d="M490.777,340.849l-31.843-25.64A91.437,91.437,0,0,0,472,268V254c0-.878-.025-1.751-.066-2.62l21.723-21.723A8,8,0,0,0,496,224V200a8,8,0,0,0-2.343-5.657A89.957,89.957,0,0,0,430.06,168H319.03a205.267,205.267,0,0,0-31.11,2.385l-3.779.588a188.715,188.715,0,0,1-59.1-.287c-5.341-.877-10.869-1.556-16.462-2.021-5.561-.441-11.13-.665-16.553-.665H81.94a89.351,89.351,0,0,0-63.6,26.343A8,8,0,0,0,16,200v24a8,8,0,0,0,2.343,5.657L40.066,251.38c-.041.869-.066,1.742-.066,2.62v14a91.437,91.437,0,0,0,13.066,47.209L21.231,340.842a14,14,0,0,0-2.6,19.085l.974,1.356a39,39,0,0,0,57.03,6.831l18.481-15.84A91.983,91.983,0,0,0,224,268v-2.111l15.9-31.8a18.01,18.01,0,0,1,32.209,0l15.9,31.8V268a91.983,91.983,0,0,0,128.883,84.274l18.481,15.84a39,39,0,0,0,57.034-6.837l.959-1.336a14,14,0,0,0-2.58-19.092ZM66.224,355.966a23,23,0,0,1-33.494-3.841l29.738-23.944A92.766,92.766,0,0,0,80.2,343.989ZM208,268a76,76,0,0,1-152,0V254a38.043,38.043,0,0,1,38-38h94a20.023,20.023,0,0,1,20,20Zm48-59.86a33.831,33.831,0,0,0-30.416,18.793l-1.958,3.917A36.051,36.051,0,0,0,188,200H94a54.082,54.082,0,0,0-49.729,32.957L32,220.687V203.412A73.408,73.408,0,0,1,81.94,184H192.03c5,0,10.146.207,15.257.613,5.141.427,10.243,1.054,15.166,1.861a204.829,204.829,0,0,0,64.138.311l3.776-.588A189.086,189.086,0,0,1,319.03,184H430.06A73.963,73.963,0,0,1,480,203.413v17.274l-12.271,12.27A54.082,54.082,0,0,0,418,200H324a36.051,36.051,0,0,0-35.626,30.85l-1.96-3.921A33.83,33.83,0,0,0,256,208.14ZM304,268V236a20.023,20.023,0,0,1,20-20h94a38.043,38.043,0,0,1,38,38v14a76,76,0,0,1-152,0Zm156.712,93.5a22.975,22.975,0,0,1-14.936-5.534L431.8,343.989a92.8,92.8,0,0,0,17.729-15.808l29.738,23.944A23.082,23.082,0,0,1,460.712,361.5Z"/></g></svg>
