<?xml version="1.0" encoding="iso-8859-1"?>
<!-- Generator: Adobe Illustrator 19.0.0, SVG Export Plug-In . SVG Version: 6.00 Build 0)  -->
<svg version="1.1" id="Layer_1" xmlns="http://www.w3.org/2000/svg" xmlns:xlink="http://www.w3.org/1999/xlink" x="0px" y="0px"
	 viewBox="0 0 512 512" style="enable-background:new 0 0 512 512;" xml:space="preserve">
<polyline style="fill:#FCF1D4;" points="197.52,471.051 404.288,471.051 404.288,503.916 107.715,503.916 107.715,471.051 
	170.573,471.051 "/>
<path style="fill:#FF633E;" d="M404.288,290.181v-61.985l84.569-33.596L461.039,79.993c0,0-5.779-23.831-28.947-33.679
	c-21.7-9.222-98.472-38.23-98.472-38.23h-77.619h-77.619c0,0-76.771,29.007-98.471,38.23c-23.168,9.848-28.947,33.679-28.947,33.679
	L23.145,194.601l84.569,33.596v275.719h148.286h148.286V317.128"/>
<path style="fill:#ED4D2E;" d="M256.58,97.673c39.989,0,78.198-38.461,78.198-89.589H178.382
	C178.382,59.213,216.593,97.673,256.58,97.673z"/>
<path style="fill:#E03C2F;" d="M178.382,8.084c0,51.129,38.21,89.589,78.198,89.589c39.989,0,78.198-38.461,78.198-89.589H178.382z"
	/>
<path style="fill:#CC291D;" d="M283.37,4.955c0,41.489-25.16,74.633-56.015,85.658c7.168,2.561,14.644,3.931,22.183,3.931
	c39.988,0,78.198-38.461,78.198-89.589C327.736,4.955,283.37,4.955,283.37,4.955z"/>
<path style="fill:#E03C2F;" d="M50.964,79.993c0,0,2.859-11.749,12.58-22.159l44.171,73.051v97.311L23.145,194.6L50.964,79.993z"/>
<polygon style="fill:#CC291D;" points="77.838,179.164 77.838,189.146 77.838,209.11 99.396,227.919 99.396,189.146 99.396,179.164 
	99.396,130.607 77.838,94.955 "/>
<path style="fill:#E03C2F;" d="M461.039,79.993c0,0-2.859-11.749-12.58-22.159l-44.171,73.051v97.311l84.569-33.596L461.039,79.993z
	"/>
<polygon style="fill:#CC291D;" points="433.706,179.164 433.706,189.146 433.706,209.11 412.148,227.919 412.148,189.146 
	412.148,179.164 412.148,130.607 433.706,94.955 "/>
<polygon style="fill:#FCF1D4;" points="31.195,161.436 107.715,193.528 107.715,228.197 23.145,194.601 "/>
<polygon style="fill:#F7DDA4;" points="77.838,189.146 77.838,219.355 99.396,227.919 99.396,193.251 77.838,184.21 "/>
<polygon style="fill:#FCF1D4;" points="480.807,161.436 404.288,193.528 404.288,228.197 488.857,194.601 "/>
<polygon style="fill:#F7DDA4;" points="433.706,189.146 433.706,219.355 412.148,227.919 412.148,193.251 433.706,184.21 "/>
<path d="M235.439,43.973h41.705c4.466,0,8.084-3.62,8.084-8.084s-3.618-8.084-8.084-8.084h-41.705c-4.466,0-8.084,3.62-8.084,8.084
	S230.973,43.973,235.439,43.973z"/>
<path d="M496.713,192.694L468.896,78.087c-0.276-1.134-7.042-27.908-33.642-39.213C416,30.692,355.108,7.575,339.862,1.802
	C338.473,0.677,336.705,0,334.778,0h-1.158H178.382c-0.259,0-0.516,0.014-0.774,0.039c-0.111,0.011-0.22,0.03-0.329,0.045
	c-0.141,0.019-0.283,0.038-0.424,0.065c-0.132,0.025-0.26,0.058-0.389,0.089c-0.115,0.028-0.231,0.056-0.346,0.088
	c-0.134,0.039-0.264,0.084-0.396,0.129c-0.067,0.024-0.135,0.041-0.202,0.066c-3.14,1.187-77.172,29.171-98.776,38.353
	C51.172,49.744,43.936,74.9,43.171,77.83c0,0.001,0,0.002-0.001,0.003c-0.014,0.055-0.025,0.098-0.036,0.137
	c-0.014,0.053-0.024,0.095-0.029,0.115l-19.769,81.444c0,0,0,0,0,0.001l-8.05,33.164c-0.951,3.915,1.127,7.932,4.872,9.42
	l79.47,31.57v237.366v32.865c0,4.466,3.618,8.084,8.084,8.084h296.573c4.466,0,8.084-3.618,8.084-8.084v-32.865V317.128
	c0-4.465-3.618-8.084-8.084-8.084s-8.084,3.62-8.084,8.084v145.838H197.52c-4.466,0-8.084,3.618-8.084,8.084
	c0,4.465,3.618,8.084,8.084,8.084h198.683v16.697H115.799v-16.697h54.774c4.466,0,8.084-3.62,8.084-8.084
	c0-4.466-3.618-8.084-8.084-8.084h-54.774v-234.77V193.53v-62.644c0-1.475-0.403-2.921-1.166-4.183L73.863,59.278
	c2.632-2.115,5.683-4.024,9.21-5.523c16.551-7.034,66.181-25.968,87.853-34.198c5.199,47.777,42.306,86.201,85.655,86.201
	c43.22,0,80.24-38.198,85.611-85.779c22.215,8.44,70.465,26.859,86.739,33.775c3.527,1.499,6.577,3.408,9.21,5.523l-40.769,67.424
	c-0.763,1.262-1.166,2.709-1.166,4.183v62.644v34.667v61.985c0,4.466,3.618,8.084,8.084,8.084s8.084-3.618,8.084-8.084v-56.498
	l79.47-31.57C495.585,200.626,497.663,196.609,496.713,192.694z M36.814,172.56l62.816,26.345v17.381L32.658,189.68L36.814,172.56z
	 M99.631,181.372l-58.954-24.725l18.135-74.711c0.004-0.018,0.055-0.21,0.157-0.549c0-0.001,0-0.002,0.001-0.002
	c0.397-1.307,1.579-4.798,3.935-8.983l36.726,60.738V181.372z M256.58,89.589c-31.953,0-66.037-29.165-69.775-73.421h139.552
	C322.617,60.425,288.533,89.589,256.58,89.589z M412.372,216.286v-17.381l62.816-26.345l4.155,17.121L412.372,216.286z
	 M449.099,72.4c1.944,3.452,3.09,6.431,3.65,8.091c0.001,0.005,0.003,0.01,0.004,0.015c0.054,0.158,0.1,0.303,0.143,0.435
	c0.008,0.022,0.014,0.045,0.022,0.066c0.036,0.111,0.067,0.21,0.094,0.302c0.009,0.028,0.018,0.058,0.026,0.084
	c0.023,0.075,0.042,0.14,0.059,0.199c0.008,0.025,0.016,0.055,0.023,0.077c0.013,0.045,0.023,0.08,0.031,0.112
	c0.005,0.019,0.013,0.045,0.017,0.06c0.008,0.028,0.014,0.054,0.015,0.058l18.143,74.748l-58.954,24.725v-48.234L449.099,72.4z"/>
<g>
</g>
<g>
</g>
<g>
</g>
<g>
</g>
<g>
</g>
<g>
</g>
<g>
</g>
<g>
</g>
<g>
</g>
<g>
</g>
<g>
</g>
<g>
</g>
<g>
</g>
<g>
</g>
<g>
</g>
</svg>
