<svg id="FilledOutline" height="512" viewBox="0 0 512 512" width="512" xmlns="http://www.w3.org/2000/svg"><path d="m384 288v200h-96s-8-136-8-192-24-128-24-128-24 72-24 128-8 192-8 192h-96v-200c0-70.09 12.79-178.55 19.7-232 2.55-19.76 4.3-32 4.3-32h208s1.75 12.24 4.3 32c6.91 53.45 19.7 161.91 19.7 232z" fill="#808080"/><path d="m256 24v32h-108.3c2.55-19.76 4.3-32 4.3-32z" fill="#b3b1b3"/><path d="m364.3 56h-132.3l-8-16 8-16h128s1.75 12.24 4.3 32z" fill="#969595"/><path d="m168.025 255.362c-.008.11-.015.22-.019.33l-8 208 15.988.616 7.994-207.836 14.067-175.834-15.95-1.276z"/><path d="m343.975 255.362-14.08-176-15.95 1.276 14.067 175.834 7.994 207.836 15.988-.616-8-208c-.004-.11-.011-.22-.019-.33z"/><path d="m367.919 22.868a8 8 0 0 0 -7.919-6.868h-208a8 8 0 0 0 -7.919 6.868c-.241 1.687-24.081 169.668-24.081 265.132v200a8 8 0 0 0 8 8h96a8 8 0 0 0 7.986-7.53c.08-1.363 8.014-136.878 8.014-192.47 0-33.729 9.1-73.979 16-99.629 6.9 25.639 16 65.871 16 99.629 0 55.592 7.934 191.107 8.014 192.47a8 8 0 0 0 7.986 7.53h96a8 8 0 0 0 8-8v-200c0-95.464-23.84-263.445-24.081-265.132zm-12.738 25.132h-27.181v-16h25.035c.532 3.885 1.265 9.322 2.146 16zm-91.181 16h16v56a8.009 8.009 0 0 1 -8 8h-8zm-27.056-16-4-8 4-8h75.056v16zm-20.1-4.422 2.212 4.422h-19.056v-16h19.056l-2.211 4.422a8 8 0 0 0 0 7.156zm-32.844-11.578v16h-27.18c.878-6.678 1.613-12.115 2.145-16zm40 264c0 47.574-5.889 154.681-7.554 184h-80.446v-192c0-66.356 11.719-168.609 18.752-224h93.248v102.721c-3.3 10.161-24 76.015-24 129.279zm152 184h-80.446c-1.665-29.319-7.554-136.426-7.554-184 0-53.264-20.7-119.118-24-129.279v-22.721h8a24.027 24.027 0 0 0 24-24v-56h61.248c7.034 55.388 18.752 157.635 18.752 224z"/></svg>