<?xml version="1.0" encoding="iso-8859-1"?>
<!-- Generator: Adobe Illustrator 19.0.0, SVG Export Plug-In . SVG Version: 6.00 Build 0)  -->
<svg version="1.1" id="Layer_1" xmlns="http://www.w3.org/2000/svg" xmlns:xlink="http://www.w3.org/1999/xlink" x="0px" y="0px"
	 viewBox="0 0 512.423 512.423" style="enable-background:new 0 0 512.423 512.423;" xml:space="preserve">
<path style="fill:#334A5E;" d="M336.919,349.787c0,0-32.2,57.8-37.4,64.9c-3.5,4.8-15.6,36.7-61.8,37.5c0,0-75.5-4-116.3-11.7
	c0,0-98.1-18.1-117.3-36.3c0,0-6.4,9.6,37.3,23.5c0,0,70.9,23.7,154.6,29.9c25.7,1.9,79.8,7,99.2-20.3c0,0,10.7-10.7,42.7-74.7
	c0,0,41-72.7,73.4-92.2l-0.8-13.4C390.219,272.987,356.119,315.687,336.919,349.787z"/>
<path style="fill:#ACB3BA;" d="M409.819,270.887c0,0,24.2-9.6,26.3,49.1l9.6,84.3l9.6-14.9l-2.1-136.5L409.819,270.887z"/>
<path style="fill:#40596B;" d="M409.819,270.887c0,0,37-18.3,33.8,37.1c0,7.5,0,16,0,23.5l3.2,92.8l10.2,3.1l9-3.1
	c0,0-8.5-93.9,3.2-128c0,0,22.4-72.5,39.5-94.9l2.1-7.5l-101.3,66.1L409.819,270.887z"/>
<rect x="446.719" y="424.487" style="fill:#334A5E;" width="19.2" height="12.8"/>
<path style="fill:#FF7058;" d="M456.319,54.987c-0.4-0.7-1-1.2-1.8-1.5c-0.2-0.2-0.3-0.3-0.3-0.3c-0.1,0-0.1,0.1-0.2,0.1
	c-0.2,0-0.4-0.1-0.6-0.1c-1.5,0-3.2,0.8-7.5,4.8c-0.6,0.6-3.8,3.7-8.7,8.4c-3.3,2.7-6.3,5.8-9.2,9c-23.7,23.4-63.6,64.1-74.3,82.3
	c-2.4,3.2-47.5,64.9-66.1,93.9l-0.1,0.1c-0.2,0.3-18.2,30.5-61.8,54.4c-10.4,5.7-21.2,9.1-36.3,11.4c-16.3,1.5-33,4.7-48.9,8.9
	c-9.3,2.5-18.4,5.7-27.7,8.2c-11.7,3.1-23.5,6.2-35.3,9.2c-13.1,3.2-26,6.9-38.8,11.1c-10.8,3.6-21,8.9-29.1,17.1
	c-7.5,7.6-12.1,18.4-8.2,29c0.3,0.9,0.7,2.4,1.5,3.1c19.2,18.1,117.3,37.3,118.4,37.3c44.6,10,116.3,11.7,116.3,11.7
	c47.4,0.3,55.2-24.2,63.5-36.8c4.6-7,35.7-65.6,35.7-65.6c37.3-67.2,93.9-96,93.9-96c86.4-52.3,81.1-62.9,81.1-62.9
	C518.519,112.087,467.519,64.487,456.319,54.987z"/>
<path style="fill:#FFD15C;" d="M154.119,326.087c-3.4,0.4-28.3,4.1-5.9,20.1c0,0,51.2,29.9,100.3,0c0,0,30.9-12.8,71.5-75.7
	l66.1-106.7l58.7-90.7c0,0,18.1-26.7,3.2-12.8c0,0-76.8,73.6-91.7,99.2c0,0-46.9,64-66.1,93.9c0,0-18.1,30.9-62.9,55.5
	c-11.7,6.4-23.5,9.6-37.3,11.7c-10.6,1-17.7,2.8-27.5,3.9c-2.1,0.2-4.1,0.6-6.1,1.1
	C155.319,325.887,154.619,325.987,154.119,326.087z"/>
<g>
</g>
<g>
</g>
<g>
</g>
<g>
</g>
<g>
</g>
<g>
</g>
<g>
</g>
<g>
</g>
<g>
</g>
<g>
</g>
<g>
</g>
<g>
</g>
<g>
</g>
<g>
</g>
<g>
</g>
</svg>
