<?xml version="1.0" encoding="utf-8"?>
<!-- Generator: Adobe Illustrator 16.0.2, SVG Export Plug-In . SVG Version: 6.00 Build 0)  -->
<!DOCTYPE svg PUBLIC "-//W3C//DTD SVG 1.1//EN" "http://www.w3.org/Graphics/SVG/1.1/DTD/svg11.dtd">
<svg version="1.1" id="圖層_1" xmlns="http://www.w3.org/2000/svg" xmlns:xlink="http://www.w3.org/1999/xlink" x="0px" y="0px"
	 width="200px" height="100px" viewBox="0 0 200 100" enable-background="new 0 0 200 100" xml:space="preserve">
<g>
	<path d="M153.088,90.063l-13.232-42.273c1.459-0.816,2.459-2.359,2.459-4.146c0-1.94-1.17-3.607-2.836-4.351l4-16
		c0.281-1.127,0.424-2.287,0.424-3.451v-1.346c0-3.889-2.719-7.14-6.354-7.988V0.739h-3.18v9.643c-2.826,0.451-5.23,2.333-6.32,5.06
		l-0.035,0.089l-0.035-0.089c-1.09-2.727-3.494-4.609-6.32-5.06V0.739h-3.178v9.766c-3.635,0.851-6.357,4.101-6.357,7.989
		c0,2.054,0.252,4.106,0.752,6.102l3.674,14.697c-1.668,0.743-2.836,2.41-2.836,4.351c0,1.787,0.998,3.329,2.461,4.146
		l-13.234,42.273c-0.877,2.809-0.088,5.834,2.068,7.9c0.014,0.014,0.029,0.027,0.045,0.035c0.893,0.838,2.051,1.254,3.211,1.254
		c1.178,0,2.355-0.43,3.252-1.287l0.631-0.607c0.572-0.545,1.537-0.545,2.109,0l0.631,0.607c1.793,1.717,4.713,1.717,6.508,0
		l0.629-0.607c0.572-0.545,1.535-0.545,2.107,0l0.631,0.607c1.795,1.717,4.713,1.717,6.506,0l0.631-0.607
		c0.57-0.545,1.535-0.545,2.107,0l0.631,0.607c1.793,1.719,4.709,1.717,6.506,0l0.631-0.607c0.572-0.545,1.537-0.545,2.109,0
		l0.631,0.607c1.779,1.703,4.664,1.717,6.459,0.041c0.018-0.016,0.033-0.029,0.049-0.043
		C153.174,95.896,153.967,92.871,153.088,90.063z"/>
	<path fill="#F3F3F3" d="M118.48,45.232c-0.877,0-1.59-0.711-1.59-1.589c0-0.877,0.713-1.589,1.59-1.589h19.068
		c0.875,0,1.588,0.712,1.588,1.589c0,0.877-0.713,1.589-1.588,1.589H118.48z"/>
	<path fill="#D895DF" d="M115.301,18.496c0-2.78,2.264-5.044,5.045-5.044c2.076,0,3.91,1.244,4.682,3.17l1.512,3.776
		c0.242,0.604,0.824,0.999,1.475,0.999s1.23-0.396,1.475-0.999L131,16.622c0.77-1.926,2.609-3.17,4.682-3.17
		c2.781,0,5.045,2.264,5.045,5.044v1.346c0,0.904-0.113,1.807-0.33,2.682l-4.09,16.352h-16.588l-3.76-15.049
		C115.521,22.083,115.301,20.29,115.301,18.496z"/>
	<path fill="#D895DF" d="M109.947,95.064l-0.633,0.605c-0.572,0.545-1.535,0.545-2.105,0c-0.012-0.012-0.023-0.023-0.035-0.033
		c-1.254-1.223-1.713-2.99-1.201-4.625l13.334-42.602h2.002l-9.096,45.479C111.381,94.063,110.594,94.445,109.947,95.064z"/>
	<path fill="#F3F3F3" d="M119.822,95.064l-0.629,0.605c-0.572,0.545-1.537,0.545-2.107,0l-0.633-0.605
		c-0.326-0.314-0.697-0.551-1.084-0.748l9.18-45.907h1.875v46.745l-0.096-0.09C124.537,93.346,121.617,93.346,119.822,95.064z"/>
	<path fill="#D895DF" d="M138.941,95.67c-0.572,0.549-1.533,0.545-2.105,0l-0.631-0.605c-1.795-1.719-4.713-1.719-6.506,0
		l-0.098,0.09V48.41h1.875l9.184,45.907c-0.389,0.199-0.762,0.438-1.086,0.75L138.941,95.67z"/>
	<path fill="#F3F3F3" d="M148.854,95.637c-0.012,0.01-0.023,0.023-0.037,0.033c-0.572,0.543-1.535,0.543-2.104,0l-0.633-0.605
		c-0.645-0.619-1.438-1.004-2.266-1.176l-9.096-45.479h2.002l13.336,42.604C150.564,92.646,150.105,94.414,148.854,95.637z"/>
	<path d="M109.26,40.326c0.299-0.384,0.406-0.889,0.287-1.362l-6.355-25.424c-0.121-0.484-0.459-0.88-0.916-1.077L92.117,8.11V2.801
		c0-0.878-0.714-1.59-1.59-1.59H74.635c-0.877,0-1.587,0.711-1.587,1.59V8.11l-10.16,4.354c-0.456,0.196-0.796,0.593-0.916,1.077
		l-6.355,25.424c-0.119,0.476-0.011,0.978,0.287,1.362c0.302,0.386,0.764,0.612,1.253,0.612h7.944c0.703,0,1.322-0.461,1.524-1.133
		l2.243-7.478l1.007,15.072c0.053,0.837,0.747,1.483,1.582,1.483h22.247c0.835,0,1.532-0.646,1.588-1.483l1.004-15.072l2.246,7.478
		c0.199,0.672,0.82,1.133,1.52,1.133h7.947C108.496,40.938,108.959,40.712,109.26,40.326z"/>
	<polygon fill="#FFFFFF" points="82.582,26.678 76.893,10.746 88.271,10.746 	"/>
	
		<rect x="76.226" y="4.39" transform="matrix(-0.9999 -0.0118 0.0118 -0.9999 165.0886 12.9282)" fill="#897EEC" width="12.712" height="3.178"/>
	<polygon fill="#FFFFFF" points="63.92,37.759 59.193,37.759 64.863,15.075 65.717,14.71 68.213,23.449 	"/>
	<path fill="#897EEC" d="M71.455,23.354c-0.006-0.111-0.026-0.223-0.056-0.331l-2.739-9.576l5.048-2.164l7.282,20.396v14.027h-8.046
		L71.455,23.354z"/>
	<path fill="#897EEC" d="M92.218,45.705H84.17V31.678l7.285-20.396l5.046,2.164l-2.735,9.575l0.021,0.006
		c-0.03,0.106-0.071,0.21-0.08,0.324L92.218,45.705z"/>
	<polygon fill="#FFFFFF" points="101.244,37.759 96.952,23.447 99.447,14.709 100.299,15.075 105.973,37.759 	"/>
	<path d="M93.054,51.588H70.807c-0.876,0-1.589,0.711-1.589,1.59v44.494c0,0.879,0.712,1.588,1.589,1.588h6.356
		c0.782,0,1.448-0.566,1.57-1.34l3.197-20.25l3.198,20.25c0.122,0.773,0.788,1.34,1.57,1.34h6.356c0.877,0,1.588-0.709,1.588-1.588
		V53.178C94.642,52.299,93.931,51.588,93.054,51.588z"/>
	<path fill="#897EEC" d="M91.465,96.082h-3.409l-4.557-28.85c-0.12-0.771-0.787-1.342-1.569-1.342c-0.781,0-1.448,0.57-1.569,1.342
		l-4.555,28.85h-3.41V54.766h19.069V96.082z"/>
</g>
<g>
	<path id="XMLID_2545_" fill="#897EEC" d="M58.945,12.665l4.484,4.484c1.491,1.491,1.491,3.908,0,5.397l-4.484,4.485H36.789
		c-0.862,0-1.561-0.699-1.561-1.561V14.226c0-0.863,0.699-1.561,1.561-1.561H58.945z"/>
	<path id="XMLID_2483_" fill="#D895DF" d="M54.593,15.906h8.502c0.647,0.647,1.01,1.01,1.657,1.657v8.502L49.085,41.73
		c-0.61,0.609-1.598,0.609-2.208,0l-7.952-7.951c-0.61-0.609-0.61-1.599,0-2.208L54.593,15.906z"/>
	<circle id="XMLID_2590_" fill="#D895DF" cx="60.912" cy="19.746" r="1.2"/>
	<circle id="XMLID_2480_" fill="#897EEC" cx="45.404" cy="22.231" r="1.2"/>
	<circle id="XMLID_2476_" fill="#897EEC" cx="40.34" cy="17.465" r="1.2"/>
	<path id="XMLID_1468_" d="M64.771,16.734l0.405-0.404c0.234-0.235,0.234-0.615,0-0.849c-0.234-0.234-0.614-0.234-0.849,0
		l-0.404,0.404l-0.404-0.404c-0.113-0.113-0.266-0.176-0.424-0.176h-0.66l-3.065-3.064c-0.113-0.113-0.266-0.176-0.424-0.176H36.789
		c-1.191,0-2.161,0.97-2.161,2.162v11.245c0,1.191,0.969,2.161,2.161,2.161h5.228l-3.515,3.516c-0.408,0.407-0.633,0.95-0.633,1.527
		c0,0.578,0.225,1.121,0.633,1.528l7.951,7.952c0.408,0.407,0.951,0.631,1.528,0.631s1.12-0.225,1.528-0.631l5.956-5.955
		c0.234-0.235,0.234-0.615,0-0.849c-0.234-0.235-0.615-0.235-0.849,0l-5.955,5.955c-0.182,0.181-0.423,0.281-0.68,0.281
		c-0.256,0-0.498-0.101-0.679-0.281l-7.952-7.952c-0.181-0.182-0.282-0.423-0.282-0.68c0-0.256,0.101-0.498,0.282-0.679
		l15.49-15.491h8.005l0.229,0.229l-1.388,1.388c-0.235-0.113-0.498-0.176-0.775-0.176c-0.993,0-1.801,0.808-1.801,1.8
		c0,0.993,0.808,1.8,1.801,1.8c0.992,0,1.8-0.807,1.8-1.8c0-0.277-0.063-0.541-0.176-0.774l1.388-1.388l0.229,0.229v8.005
		l-5.717,5.717c-0.234,0.234-0.234,0.613,0,0.848c0.235,0.234,0.615,0.234,0.849,0l5.893-5.892c0.113-0.113,0.176-0.266,0.176-0.425
		v-8.502c0-0.159-0.063-0.312-0.176-0.425L64.771,16.734z M45.404,22.832c-0.33,0-0.6-0.27-0.6-0.601s0.27-0.6,0.6-0.6
		c0.331,0,0.601,0.27,0.601,0.6S45.735,22.832,45.404,22.832z M54.593,15.305c-0.159,0-0.312,0.063-0.424,0.176l-6.979,6.979
		c0.01-0.075,0.016-0.151,0.016-0.229c0-0.992-0.808-1.8-1.801-1.8c-0.993,0-1.8,0.808-1.8,1.8c0,0.993,0.808,1.801,1.8,1.801
		c0.078,0,0.153-0.005,0.228-0.015l-2.415,2.415h-6.429c-0.529,0-0.96-0.431-0.96-0.96V14.226c0-0.53,0.431-0.961,0.96-0.961h21.908
		l2.041,2.041H54.593z M60.912,20.347c-0.331,0-0.6-0.27-0.6-0.601c0-0.331,0.269-0.599,0.6-0.599c0.137,0,0.263,0.046,0.364,0.124
		c0.016,0.021,0.033,0.041,0.052,0.06c0.019,0.019,0.039,0.036,0.06,0.051c0.078,0.102,0.124,0.228,0.124,0.364
		C61.511,20.077,61.242,20.347,60.912,20.347z"/>
	<path id="XMLID_1527_" d="M54.587,29.816c0.159,0,0.311-0.063,0.424-0.176l1.357-1.358c0.234-0.234,0.234-0.614,0-0.849
		c-0.234-0.234-0.615-0.234-0.849,0l-0.933,0.934l-2.971-2.971c-0.234-0.234-0.613-0.234-0.848,0c-0.235,0.234-0.235,0.615,0,0.849
		l3.394,3.394C54.275,29.753,54.427,29.816,54.587,29.816L54.587,29.816z"/>
	<path id="XMLID_1528_" d="M59.253,24.549c-0.234-0.235-0.613-0.235-0.848,0l-0.764,0.764l-0.849-0.849l0.764-0.764
		c0.234-0.234,0.234-0.615,0-0.849c-0.235-0.234-0.615-0.234-0.849,0l-0.764,0.763l-0.849-0.848l0.764-0.764
		c0.235-0.234,0.235-0.615,0-0.848c-0.234-0.235-0.613-0.235-0.848,0l-1.188,1.188c-0.113,0.113-0.176,0.266-0.176,0.425
		c0,0.159,0.063,0.312,0.176,0.423l3.394,3.395c0.117,0.117,0.271,0.175,0.425,0.175c0.153,0,0.307-0.058,0.425-0.175l1.187-1.188
		C59.488,25.164,59.488,24.784,59.253,24.549L59.253,24.549z"/>
	<path id="XMLID_1531_" d="M52.617,31.449c0.295,0.15,0.656,0.033,0.807-0.263s0.033-0.656-0.262-0.807l-4.498-2.291
		c-0.232-0.118-0.513-0.073-0.697,0.11c-0.184,0.184-0.228,0.465-0.11,0.697l2.291,4.498c0.105,0.208,0.316,0.328,0.535,0.327
		c0.092,0,0.185-0.02,0.272-0.065c0.295-0.149,0.412-0.511,0.262-0.806l-0.184-0.362l1.222-1.223L52.617,31.449z M50.46,31.362
		l-0.696-1.366l1.368,0.695L50.46,31.362z"/>
	<path id="XMLID_1532_" d="M46.864,36.09c-0.234,0.234-0.234,0.614,0,0.849c0.117,0.117,0.271,0.176,0.424,0.176
		c0.153,0,0.307-0.059,0.424-0.176l0.848-0.849c0.702-0.702,0.702-1.844,0-2.546c-0.667-0.667-1.732-0.699-2.438-0.099
		c-0.022,0.017-0.043,0.035-0.063,0.054l-0.044,0.044c-0.113,0.113-0.264,0.175-0.424,0.175c-0.16,0-0.311-0.062-0.424-0.175
		c-0.234-0.234-0.234-0.615,0-0.849l0.848-0.848c0.235-0.234,0.235-0.615,0-0.849c-0.234-0.234-0.614-0.234-0.848,0l-0.849,0.849
		c-0.702,0.702-0.702,1.844,0,2.546c0.34,0.34,0.792,0.526,1.272,0.526c0.48,0,0.932-0.186,1.271-0.526c0.001,0,0.001,0,0.002,0
		c0.234-0.234,0.614-0.234,0.849,0c0.113,0.113,0.176,0.263,0.176,0.424c0,0.16-0.063,0.311-0.176,0.424L46.864,36.09z"/>
	<path id="XMLID_1533_" d="M44.91,15.939c-0.289-0.164-0.655-0.062-0.818,0.228l-3.87,6.855c-0.163,0.289-0.062,0.655,0.228,0.817
		c0.093,0.053,0.194,0.078,0.294,0.078c0.209,0,0.413-0.11,0.523-0.305l3.871-6.856C45.3,16.467,45.199,16.102,44.91,15.939z"/>
	<path id="XMLID_1536_" d="M42.14,17.465c0-0.993-0.808-1.801-1.8-1.801c-0.993,0-1.801,0.808-1.801,1.801s0.808,1.801,1.801,1.801
		C41.332,19.266,42.14,18.458,42.14,17.465z M39.739,17.465c0-0.331,0.269-0.6,0.601-0.6c0.33,0,0.6,0.27,0.6,0.6
		c0,0.332-0.27,0.6-0.6,0.6C40.008,18.065,39.739,17.796,39.739,17.465z"/>
	<path id="XMLID_1537_" d="M56.95,33.266c-0.158,0-0.313,0.064-0.424,0.176c-0.112,0.112-0.177,0.267-0.177,0.423
		c0,0.158,0.065,0.313,0.177,0.425c0.111,0.112,0.266,0.176,0.424,0.176c0.158,0,0.313-0.064,0.425-0.176
		c0.111-0.111,0.175-0.267,0.175-0.425c0-0.156-0.063-0.311-0.175-0.423C57.263,33.331,57.108,33.266,56.95,33.266z"/>
</g>
<g>
	<path fill="#BC76C4" d="M41.783,70.348c-0.162,0-0.323-0.05-0.46-0.15c-0.256-0.186-0.376-0.504-0.307-0.813l0.953-4.197
		l-3.231-2.834c-0.237-0.207-0.328-0.535-0.23-0.835c0.098-0.301,0.363-0.513,0.677-0.541l4.275-0.389l1.69-3.956
		c0.125-0.29,0.408-0.478,0.724-0.478s0.6,0.188,0.724,0.478l1.69,3.956l4.275,0.389c0.315,0.027,0.581,0.24,0.677,0.541
		c0.098,0.299,0.008,0.628-0.229,0.835l-3.231,2.834l0.953,4.197c0.07,0.309-0.05,0.627-0.306,0.813
		c-0.255,0.185-0.596,0.199-0.865,0.038l-3.687-2.204l-3.687,2.205C42.063,70.311,41.924,70.348,41.783,70.348z"/>
	<path fill="#BC76C4" d="M45.874,67.083c0.141,0,0.279,0.037,0.404,0.111l3.479,2.08l-0.899-3.961
		c-0.064-0.282,0.032-0.576,0.25-0.767l3.051-2.676l-4.036-0.366c-0.291-0.027-0.541-0.21-0.654-0.478l-1.594-3.732l-1.595,3.733
		c-0.113,0.266-0.362,0.449-0.652,0.475l-4.038,0.367l3.051,2.676c0.219,0.191,0.314,0.484,0.25,0.768l-0.899,3.961l3.479-2.08
		C45.595,67.12,45.734,67.083,45.874,67.083z"/>
	<path fill="#BC76C4" d="M43.427,60.665C43.427,60.665,43.427,60.666,43.427,60.665L43.427,60.665z"/>
	<path fill="#BC76C4" d="M48.319,60.664L48.319,60.664C48.32,60.664,48.32,60.664,48.319,60.664z"/>
</g>
<g>
	<path fill="#BC76C4" d="M160.479,32.143c-0.162,0-0.323-0.05-0.461-0.15c-0.256-0.186-0.375-0.504-0.307-0.813l0.953-4.197
		l-3.23-2.834c-0.238-0.207-0.328-0.535-0.23-0.835c0.098-0.301,0.362-0.513,0.676-0.541l4.275-0.389l1.691-3.956
		c0.124-0.29,0.408-0.478,0.723-0.478c0.316,0,0.6,0.188,0.725,0.478l1.689,3.956l4.275,0.389c0.314,0.027,0.58,0.24,0.678,0.541
		c0.098,0.299,0.008,0.628-0.23,0.835l-3.23,2.834l0.952,4.197c0.069,0.309-0.05,0.627-0.306,0.813
		c-0.256,0.185-0.596,0.199-0.865,0.038l-3.688-2.204l-3.686,2.205C160.758,32.105,160.619,32.143,160.479,32.143z"/>
	<path fill="#BC76C4" d="M164.568,28.878c0.141,0,0.279,0.037,0.404,0.111l3.479,2.08l-0.899-3.961
		c-0.064-0.282,0.031-0.576,0.25-0.767l3.051-2.676l-4.037-0.366c-0.291-0.027-0.541-0.21-0.654-0.478l-1.594-3.732l-1.594,3.733
		c-0.113,0.266-0.363,0.449-0.652,0.475l-4.038,0.367l3.051,2.676c0.219,0.191,0.314,0.484,0.25,0.768l-0.899,3.961l3.479-2.08
		C164.29,28.915,164.43,28.878,164.568,28.878z"/>
	<path fill="#BC76C4" d="M162.122,22.46C162.122,22.46,162.122,22.461,162.122,22.46L162.122,22.46z"/>
	<path fill="#BC76C4" d="M167.015,22.459L167.015,22.459C167.016,22.459,167.016,22.459,167.015,22.459z"/>
</g>
<circle fill="#BC76C4" cx="31.937" cy="54.766" r="2.625"/>
<circle fill="#BC76C4" cx="176.333" cy="38.876" r="2.624"/>
</svg>
