<?xml version="1.0" encoding="utf-8"?>
<!-- Generator: Adobe Illustrator 16.0.2, SVG Export Plug-In . SVG Version: 6.00 Build 0)  -->
<!DOCTYPE svg PUBLIC "-//W3C//DTD SVG 1.1//EN" "http://www.w3.org/Graphics/SVG/1.1/DTD/svg11.dtd">
<svg version="1.1" id="圖層_1" xmlns="http://www.w3.org/2000/svg" xmlns:xlink="http://www.w3.org/1999/xlink" x="0px" y="0px"
	 width="200px" height="100px" viewBox="0 0 200 100" enable-background="new 0 0 200 100" xml:space="preserve">
<g>
	<path d="M139.423,6H60.577C54.745,6,50,10.745,50,16.577v43.269v6.731c0,5.832,4.745,10.577,10.577,10.577h25.539l-3.077,15.385
		h-9.962c-1.063,0-1.923,0.86-1.923,1.922c0,1.063,0.861,1.924,1.923,1.924h53.846c1.063,0,1.923-0.861,1.923-1.924
		c0-1.062-0.86-1.922-1.923-1.922h-9.962l-3.076-15.385h25.538c5.832,0,10.577-4.745,10.577-10.577v-6.731V16.577
		C150,10.745,145.256,6,139.423,6z"/>
	<polygon fill="#BC76C4" points="86.961,92.539 90.038,77.154 109.962,77.154 113.039,92.539 	"/>
	<path fill="#BC76C4" d="M146.154,66.577c0,3.711-3.02,6.73-6.731,6.73H60.577c-3.711,0-6.731-3.019-6.731-6.73V61.77h92.308V66.577
		L146.154,66.577z"/>
	<path fill="#FFFFFF" d="M146.154,57.924H53.846v-3.847h11.539c1.062,0,1.923-0.86,1.923-1.923s-0.861-1.923-1.923-1.923H53.846
		V16.577c0-3.711,3.019-6.731,6.731-6.731h78.846c3.712,0,6.731,3.019,6.731,6.731V57.924L146.154,57.924z"/>
	<g>
		<g>
			<g>
				<path d="M100,63.692c-2.121,0-3.846,1.726-3.846,3.847c0,2.12,1.726,3.846,3.846,3.846c2.121,0,3.846-1.726,3.846-3.846
					C103.846,65.418,102.121,63.692,100,63.692z"/>
			</g>
		</g>
		<g>
			<g>
				<path d="M115.744,42.83l-4.079-4.08l3.399-3.399c0.494-0.494,0.682-1.218,0.488-1.89c-0.192-0.672-0.734-1.186-1.416-1.344
					l-17.677-4.079c-0.646-0.149-1.323,0.045-1.792,0.514c-0.469,0.469-0.663,1.146-0.514,1.792l4.08,17.678
					c0.157,0.681,0.671,1.223,1.344,1.416s1.396,0.005,1.89-0.489l3.399-3.399l4.079,4.08c0.376,0.375,0.868,0.563,1.359,0.563
					c0.492,0,0.984-0.188,1.36-0.563l4.079-4.08C116.495,44.799,116.495,43.581,115.744,42.83z M110.305,45.55l-4.079-4.08
					c-0.376-0.375-0.868-0.563-1.359-0.563c-0.492,0-0.984,0.188-1.36,0.563l-2.306,2.306l-2.607-11.299l11.299,2.607l-2.306,2.306
					c-0.752,0.751-0.752,1.969,0,2.72l4.079,4.08L110.305,45.55z"/>
			</g>
		</g>
		<g>
			<g>
				<path d="M92.084,23.249l-1.923-1.923c-0.751-0.751-1.969-0.751-2.72,0s-0.751,1.969,0,2.72l1.923,1.923
					c0.375,0.376,0.868,0.563,1.36,0.563c0.492,0,0.984-0.188,1.359-0.563C92.835,25.218,92.835,24,92.084,23.249z"/>
			</g>
		</g>
		<g>
			<g>
				<path d="M88.335,28.456h-2.72c-1.062,0-1.923,0.861-1.923,1.923s0.861,1.923,1.923,1.923h2.72c1.062,0,1.923-0.861,1.923-1.923
					S89.397,28.456,88.335,28.456z"/>
			</g>
		</g>
		<g>
			<g>
				<path d="M92.084,34.788c-0.75-0.751-1.968-0.751-2.719,0l-1.923,1.923c-0.751,0.751-0.751,1.969,0,2.72
					c0.376,0.375,0.868,0.563,1.36,0.563c0.492,0,0.984-0.188,1.36-0.563l1.923-1.923C92.835,36.757,92.835,35.539,92.084,34.788z"
					/>
			</g>
		</g>
		<g>
			<g>
				<path d="M105.546,21.326c-0.751-0.751-1.969-0.751-2.72,0l-1.923,1.923c-0.751,0.751-0.751,1.969,0,2.72
					c0.376,0.376,0.868,0.563,1.36,0.563s0.984-0.188,1.359-0.563l1.923-1.923C106.297,23.295,106.297,22.077,105.546,21.326z"/>
			</g>
		</g>
		<g>
			<g>
				<path d="M96.494,17.577c-1.063,0-1.923,0.861-1.923,1.923v2.719c0,1.062,0.861,1.923,1.923,1.923
					c1.062,0,1.923-0.861,1.923-1.923V19.5C98.417,18.438,97.556,17.577,96.494,17.577z"/>
			</g>
		</g>
		<g>
			<g>
				<path d="M73.039,51.779c-0.023-0.123-0.062-0.244-0.11-0.361c-0.048-0.116-0.107-0.228-0.177-0.332
					c-0.069-0.105-0.15-0.203-0.238-0.292c-0.089-0.088-0.187-0.169-0.292-0.238c-0.104-0.069-0.215-0.129-0.333-0.177
					c-0.116-0.048-0.237-0.087-0.36-0.11c-0.248-0.05-0.502-0.05-0.75,0c-0.123,0.023-0.244,0.062-0.359,0.11
					c-0.118,0.048-0.229,0.107-0.333,0.177c-0.106,0.069-0.204,0.15-0.292,0.238c-0.088,0.089-0.169,0.187-0.239,0.292
					c-0.069,0.104-0.129,0.216-0.177,0.332c-0.048,0.117-0.086,0.238-0.109,0.361c-0.025,0.123-0.039,0.25-0.039,0.375
					s0.013,0.252,0.039,0.375c0.023,0.123,0.062,0.244,0.109,0.359c0.048,0.117,0.107,0.229,0.177,0.332
					c0.069,0.106,0.15,0.204,0.239,0.293c0.088,0.088,0.187,0.169,0.292,0.238c0.104,0.069,0.215,0.129,0.333,0.177
					c0.115,0.048,0.236,0.087,0.359,0.112c0.123,0.024,0.25,0.036,0.375,0.036s0.252-0.012,0.375-0.036
					c0.123-0.025,0.244-0.064,0.36-0.112c0.117-0.048,0.229-0.107,0.333-0.177c0.106-0.069,0.204-0.15,0.292-0.238
					c0.088-0.089,0.169-0.187,0.238-0.293c0.069-0.104,0.129-0.215,0.177-0.332c0.048-0.115,0.087-0.236,0.11-0.359
					c0.025-0.123,0.039-0.25,0.039-0.375S73.063,51.902,73.039,51.779z"/>
			</g>
		</g>
		<g>
		</g>
		<g>
		</g>
		<g>
		</g>
		<g>
		</g>
		<g>
		</g>
		<g>
		</g>
		<g>
		</g>
		<g>
		</g>
		<g>
		</g>
		<g>
		</g>
		<g>
		</g>
		<g>
		</g>
		<g>
		</g>
		<g>
		</g>
		<g>
		</g>
	</g>
</g>
<g>
	<path fill="#BC76C4" d="M41.715,36.158l-0.362-0.073c-0.74-0.15-1.316-0.726-1.466-1.466l-0.073-0.362
		c-0.084-0.416-0.44-0.707-0.866-0.707c-0.425,0-0.781,0.291-0.865,0.707l-0.074,0.362c-0.15,0.74-0.726,1.315-1.466,1.466
		l-0.361,0.073c-0.417,0.085-0.708,0.44-0.708,0.866c0,0.425,0.291,0.781,0.708,0.865l0.361,0.073
		c0.741,0.15,1.316,0.726,1.466,1.467l0.074,0.361c0.084,0.417,0.44,0.708,0.865,0.708c0.425,0,0.781-0.291,0.866-0.708l0.073-0.361
		c0.15-0.741,0.726-1.316,1.466-1.467l0.362-0.073c0.417-0.084,0.708-0.44,0.708-0.865S42.132,36.243,41.715,36.158z"/>
	<g>
		<g>
			<path fill="#BC76C4" d="M47.625,37.748c-0.241,0-0.437,0.195-0.437,0.437v1.182c0,0.241,0.195,0.437,0.437,0.437
				s0.437-0.195,0.437-0.437v-1.182C48.062,37.943,47.867,37.748,47.625,37.748z"/>
		</g>
	</g>
	<g>
		<g>
			<path fill="#BC76C4" d="M47.625,40.929c-0.241,0-0.437,0.196-0.437,0.437v1.183c0,0.241,0.195,0.437,0.437,0.437
				s0.437-0.195,0.437-0.437v-1.183C48.062,41.125,47.867,40.929,47.625,40.929z"/>
		</g>
	</g>
	<g>
		<g>
			<path fill="#BC76C4" d="M49.808,39.929h-1.182c-0.241,0-0.437,0.195-0.437,0.437s0.196,0.437,0.437,0.437h1.182
				c0.241,0,0.437-0.195,0.437-0.437S50.049,39.929,49.808,39.929z"/>
		</g>
	</g>
	<g>
		<g>
			<path fill="#BC76C4" d="M46.625,39.929h-1.183c-0.241,0-0.437,0.195-0.437,0.437s0.196,0.437,0.437,0.437h1.183
				c0.241,0,0.437-0.195,0.437-0.437S46.866,39.929,46.625,39.929z"/>
		</g>
	</g>
	<g>
		<g>
			<path fill="#BC76C4" d="M27.799,32.246c-0.241,0-0.437,0.195-0.437,0.437v1.182c0,0.242,0.196,0.437,0.437,0.437
				c0.241,0,0.437-0.195,0.437-0.437v-1.182C28.235,32.441,28.04,32.246,27.799,32.246z"/>
		</g>
	</g>
	<g>
		<g>
			<path fill="#BC76C4" d="M27.799,35.428c-0.241,0-0.437,0.195-0.437,0.437v1.183c0,0.241,0.196,0.437,0.437,0.437
				c0.241,0,0.437-0.195,0.437-0.437v-1.183C28.235,35.624,28.04,35.428,27.799,35.428z"/>
		</g>
	</g>
	<g>
		<g>
			<path fill="#BC76C4" d="M29.981,34.428h-1.182c-0.241,0-0.437,0.195-0.437,0.437s0.196,0.437,0.437,0.437h1.182
				c0.241,0,0.437-0.195,0.437-0.437S30.222,34.428,29.981,34.428z"/>
		</g>
	</g>
	<g>
		<g>
			<path fill="#BC76C4" d="M26.798,34.428h-1.182c-0.241,0-0.437,0.195-0.437,0.437s0.195,0.437,0.437,0.437h1.182
				c0.241,0,0.437-0.195,0.437-0.437S27.04,34.428,26.798,34.428z"/>
		</g>
	</g>
	<g>
		<g>
			<path fill="#BC76C4" d="M47.682,15.177c-0.241,0-0.437,0.196-0.437,0.437v1.183c0,0.241,0.196,0.437,0.437,0.437
				c0.241,0,0.437-0.195,0.437-0.437v-1.183C48.119,15.374,47.923,15.177,47.682,15.177z"/>
		</g>
	</g>
	<g>
		<g>
			<path fill="#BC76C4" d="M47.682,18.36c-0.241,0-0.437,0.196-0.437,0.437v1.183c0,0.241,0.196,0.437,0.437,0.437
				c0.241,0,0.437-0.195,0.437-0.437v-1.182C48.119,18.556,47.923,18.36,47.682,18.36z"/>
		</g>
	</g>
	<g>
		<g>
			<path fill="#BC76C4" d="M49.865,17.36h-1.183c-0.241,0-0.437,0.195-0.437,0.437s0.196,0.437,0.437,0.437h1.183
				c0.241,0,0.437-0.195,0.437-0.437S50.105,17.36,49.865,17.36z"/>
		</g>
	</g>
	<g>
		<g>
			<path fill="#BC76C4" d="M46.682,17.36H45.5c-0.242,0-0.437,0.195-0.437,0.437s0.195,0.437,0.437,0.437h1.182
				c0.241,0,0.437-0.195,0.437-0.437S46.923,17.36,46.682,17.36z"/>
		</g>
	</g>
	<path fill="#BC76C4" d="M41.824,21.167l-1.73-0.351c-1.537-0.312-2.731-1.506-3.043-3.043l-0.351-1.73
		c-0.117-0.576-0.59-0.963-1.177-0.963s-1.061,0.387-1.178,0.963l-0.351,1.73c-0.312,1.537-1.506,2.731-3.043,3.043l-1.731,0.351
		c-0.576,0.117-0.962,0.59-0.962,1.178c0,0.587,0.387,1.061,0.962,1.177l1.731,0.352c1.537,0.312,2.731,1.506,3.043,3.043
		l0.351,1.73c0.117,0.576,0.59,0.963,1.178,0.963c0.587,0,1.061-0.388,1.177-0.963l0.351-1.73c0.312-1.537,1.506-2.731,3.043-3.043
		l1.73-0.352c0.576-0.116,0.962-0.59,0.962-1.177C42.787,21.756,42.4,21.284,41.824,21.167z"/>
	<path fill="#BC76C4" d="M41.651,22.666l-1.731,0.352c-1.881,0.381-3.344,1.843-3.725,3.725l-0.351,1.73
		c-0.049,0.244-0.258,0.264-0.321,0.264s-0.272-0.02-0.322-0.264l-0.351-1.73c-0.382-1.882-1.844-3.344-3.726-3.725l-1.73-0.352
		c-0.244-0.049-0.263-0.259-0.263-0.321s0.019-0.272,0.263-0.321l1.73-0.352c1.881-0.381,3.344-1.844,3.726-3.725l0.351-1.73
		c0.05-0.244,0.259-0.264,0.322-0.264s0.272,0.02,0.321,0.264l0.351,1.73c0.381,1.881,1.844,3.344,3.725,3.725l1.731,0.352
		c0.244,0.049,0.263,0.258,0.263,0.321C41.914,22.407,41.895,22.617,41.651,22.666z"/>
	<path fill="#BC76C4" d="M53.729,27.618l-1.329-0.27c-1.14-0.231-2.026-1.117-2.257-2.258l-0.27-1.329
		c-0.098-0.482-0.511-0.82-1.003-0.82c-0.493,0-0.906,0.338-1.004,0.82l-0.27,1.329c-0.231,1.141-1.117,2.026-2.258,2.258
		l-1.329,0.27c-0.483,0.098-0.82,0.511-0.82,1.004s0.337,0.905,0.82,1.003l1.329,0.27c1.141,0.231,2.027,1.117,2.258,2.258
		l0.27,1.329c0.098,0.483,0.511,0.82,1.004,0.82c0.493,0,0.905-0.337,1.003-0.82l0.27-1.329c0.231-1.141,1.118-2.026,2.258-2.258
		l1.329-0.27c0.483-0.098,0.82-0.51,0.82-1.003S54.212,27.715,53.729,27.618z"/>
	<path fill="#BC76C4" d="M53.555,28.769l-1.329,0.27c-1.485,0.301-2.639,1.455-2.94,2.94l-0.27,1.329
		c-0.016,0.079-0.066,0.12-0.148,0.12c-0.082,0-0.131-0.041-0.147-0.12l-0.27-1.329c-0.301-1.485-1.455-2.64-2.94-2.94l-1.329-0.27
		c-0.08-0.017-0.121-0.066-0.121-0.147c0-0.082,0.041-0.132,0.121-0.148l1.329-0.269c1.485-0.302,2.639-1.456,2.94-2.94l0.27-1.329
		c0.016-0.08,0.066-0.121,0.147-0.121c0.082,0,0.132,0.041,0.148,0.121l0.27,1.329c0.301,1.484,1.455,2.639,2.94,2.94l1.329,0.269
		c0.08,0.017,0.121,0.066,0.121,0.148C53.676,28.703,53.636,28.752,53.555,28.769z"/>
	<g>
	</g>
	<g>
	</g>
	<g>
	</g>
	<g>
	</g>
	<g>
	</g>
	<g>
	</g>
	<g>
	</g>
	<g>
	</g>
	<g>
	</g>
	<g>
	</g>
	<g>
	</g>
	<g>
	</g>
	<g>
	</g>
	<g>
	</g>
	<g>
	</g>
</g>
<g>
	<path d="M151.005,50.231c-6.099-0.001-11.611,3.635-14.012,9.241l-0.189,0.063l0.073,0.221c-3.16,7.796,0.596,16.677,8.393,19.838
		c1.82,0.738,3.767,1.117,5.731,1.116c8.415,0.001,15.24-6.821,15.241-15.237S159.421,50.232,151.005,50.231z"/>
	<path fill="#FFFFFF" d="M162.958,73.154l-0.782-0.782v-1.821c0.002-0.078-0.017-0.155-0.051-0.227l-1.981-3.957v-1.911
		c0-0.171-0.084-0.33-0.226-0.424l-1.523-1.016c-0.119-0.079-0.268-0.105-0.407-0.07l-1.866,0.467l-3.135-1.346l-0.432-3.021
		l1.196-1.194h2.565l0.863,1.298c0.077,0.116,0.201,0.195,0.34,0.219l3.048,0.508c0.081,0.014,0.165,0.007,0.243-0.019l2.808-0.936
		C165.973,63.439,165.721,68.873,162.958,73.154z"/>
	<path fill="#FFFFFF" d="M160.863,55.237l-0.826,0.551l-2.303-0.461l-1.493-0.497c-0.092-0.031-0.19-0.035-0.284-0.012l-1.889,0.473
		l-0.827-0.276l0.613-1.227h1.718c0.078,0,0.157-0.019,0.227-0.055l1.757-0.878C158.768,53.487,159.881,54.29,160.863,55.237z"/>
	<path fill="#FFFFFF" d="M145.437,52.382l1.219,0.813c0.061,0.04,0.128,0.067,0.198,0.078l2.463,0.411l-0.24,0.719l-1.283,0.428
		c-0.115,0.039-0.212,0.116-0.274,0.221l-1.459,2.431l-2.343,1.405l-3.455,0.494c-0.25,0.035-0.438,0.249-0.438,0.502v1.524
		c0,0.135,0.055,0.265,0.149,0.359l0.866,0.866v0.874l-2.112-1.41l-0.767-2.299C139.419,56.465,142.093,53.813,145.437,52.382z"/>
	<path fill="#FFFFFF" d="M143.99,69.037l-2.296-0.459l-0.854-1.703v-1.193l1.895-1.893l0.7,1.401
		c0.086,0.173,0.261,0.281,0.453,0.281h3.27l1.375,2.293c0.092,0.152,0.258,0.246,0.437,0.246h1.411l-0.354,1.781l-1.924,1.923
		c-0.096,0.097-0.148,0.225-0.149,0.359v1.271l-1.828,1.372c-0.128,0.095-0.203,0.245-0.203,0.406v1.834l-0.633-0.209l-0.892-2.23
		v-4.982C144.396,69.294,144.227,69.086,143.99,69.037z"/>
	<path fill="#BC76C4" d="M142.464,76.846c-4.79-3.593-6.815-9.801-5.066-15.527l0.423,1.266c0.035,0.106,0.104,0.199,0.198,0.262
		l2.533,1.688l-0.578,0.578c-0.095,0.095-0.149,0.225-0.149,0.359v1.523c0,0.078,0.02,0.156,0.055,0.227l1.016,2.032
		c0.07,0.14,0.201,0.24,0.355,0.271l2.133,0.427v4.663c0,0.064,0.013,0.129,0.037,0.189l1.016,2.539
		c0.056,0.14,0.169,0.246,0.312,0.293l1.523,0.508c0.051,0.018,0.104,0.026,0.158,0.027c0.281,0,0.508-0.228,0.508-0.508v-2.287
		l1.828-1.371c0.128-0.095,0.205-0.246,0.205-0.406v-1.313l1.882-1.884c0.071-0.07,0.119-0.161,0.139-0.259l0.509-2.54
		c0.054-0.274-0.124-0.542-0.399-0.598c-0.032-0.007-0.065-0.01-0.099-0.01h-1.745l-1.376-2.294
		c-0.092-0.152-0.257-0.245-0.436-0.245h-3.242l-0.872-1.752c-0.073-0.146-0.213-0.248-0.373-0.273
		c-0.162-0.028-0.326,0.024-0.44,0.142l-0.66,0.656v-0.806c0-0.135-0.053-0.264-0.148-0.358l-0.868-0.867v-0.874l3.121-0.445
		c0.067-0.01,0.132-0.032,0.189-0.066l2.541-1.525c0.07-0.043,0.129-0.103,0.173-0.174l1.428-2.378l1.345-0.45
		c0.152-0.049,0.271-0.168,0.321-0.32l0.508-1.523c0.088-0.267-0.057-0.555-0.323-0.643c-0.023-0.008-0.049-0.015-0.075-0.019
		l-2.939-0.49l-0.517-0.344c3.196-1.041,6.659-0.912,9.769,0.363l-0.928,0.463h-1.911c-0.194-0.001-0.371,0.108-0.458,0.281
		l-1.016,2.031c-0.126,0.252-0.023,0.556,0.228,0.682c0.021,0.01,0.044,0.02,0.066,0.027l1.524,0.508
		c0.091,0.031,0.19,0.035,0.283,0.011l1.889-0.471l1.384,0.46c0.02,0.007,0.039,0.014,0.061,0.017l2.539,0.508
		c0.133,0.027,0.271,0,0.383-0.075l1.156-0.771c0.568,0.635,1.08,1.317,1.527,2.042l-2.5,0.833l-2.705-0.451l-0.894-1.341
		c-0.095-0.141-0.251-0.225-0.421-0.226h-3.047c-0.136,0-0.265,0.053-0.359,0.148l-1.524,1.523
		c-0.112,0.114-0.167,0.272-0.144,0.432l0.508,3.556c0.024,0.177,0.142,0.326,0.305,0.395l3.556,1.524
		c0.103,0.044,0.215,0.053,0.324,0.026l1.813-0.454l1.108,0.74v1.761c0,0.078,0.017,0.156,0.05,0.227l1.982,3.957v1.912
		c0,0.135,0.054,0.264,0.148,0.359l1.063,1.063C157.658,80.287,148.746,81.56,142.464,76.846z"/>
</g>
</svg>
