<?xml version="1.0" encoding="utf-8"?>
<!-- Generator: Adobe Illustrator 16.0.2, SVG Export Plug-In . SVG Version: 6.00 Build 0)  -->
<!DOCTYPE svg PUBLIC "-//W3C//DTD SVG 1.1//EN" "http://www.w3.org/Graphics/SVG/1.1/DTD/svg11.dtd">
<svg version="1.1" id="圖層_1" xmlns="http://www.w3.org/2000/svg" xmlns:xlink="http://www.w3.org/1999/xlink" x="0px" y="0px"
	 width="200px" height="100px" viewBox="0 0 200 100" enable-background="new 0 0 200 100" xml:space="preserve">
<g>
	<path fill="#F2E3F3" stroke="#000000" stroke-miterlimit="10" d="M170.438,83.802c0,7.565-5.373,13.7-12,13.7h-129
		c-6.627,0-12-6.135-12-13.7v-66.6c0-7.566,5.373-13.7,12-13.7h129c6.627,0,12,6.134,12,13.7V83.802z"/>
	<g>
		<path d="M185.065,11.503L170.99,5.66c-0.353-0.147-0.749-0.147-1.103,0l-14.075,5.844c-0.535,0.223-0.885,0.745-0.885,1.327v7.104
			c0,9.781,5.912,18.582,14.969,22.279c0.348,0.141,0.737,0.141,1.085,0c9.058-3.697,14.97-12.498,14.97-22.279v-7.104
			C185.951,12.249,185.602,11.726,185.065,11.503z"/>
		<path fill="#D89FDE" d="M183.078,19.934c0,8.316-4.883,15.971-12.639,19.389c-7.549-3.326-12.64-10.848-12.64-19.389V13.79
			l12.64-5.248l12.639,5.248V19.934z"/>
		<path d="M168.853,24.776l6.173-6.174c0.561-0.561,1.471-0.561,2.031,0s0.561,1.471-0.001,2.031l-7.188,7.189
			c-0.561,0.561-1.471,0.561-2.031,0l-4.015-4.014c-0.56-0.562-0.56-1.471,0-2.032c0.562-0.561,1.472-0.561,2.031,0L168.853,24.776z
			"/>
	</g>
	<path fill="#787378" d="M152.467,23.212c0,1.774-1.438,3.212-3.212,3.212h-70.91c-1.774,0-3.212-1.438-3.212-3.212l0,0
		c0-1.774,1.438-3.212,3.212-3.212h70.91C151.028,20,152.467,21.438,152.467,23.212L152.467,23.212z"/>
	<path fill="#787378" d="M152.467,39.108c0,1.773-1.438,3.211-3.212,3.211h-70.91c-1.774,0-3.212-1.438-3.212-3.211l0,0
		c0-1.774,1.438-3.213,3.212-3.213h70.91C151.028,35.895,152.467,37.333,152.467,39.108L152.467,39.108z"/>
	<path fill="#787378" d="M152.467,64.107c0,1.773-2.158,3.211-4.818,3.211H41.284c-2.661,0-4.818-1.438-4.818-3.211l0,0
		c0-1.773,2.157-3.213,4.818-3.213h106.365C150.309,60.895,152.467,62.334,152.467,64.107L152.467,64.107z"/>
	<path fill="#787378" d="M113.8,79.441c0,1.773-1.438,3.211-3.212,3.211h-70.91c-1.774,0-3.212-1.438-3.212-3.211l0,0
		c0-1.773,1.438-3.213,3.212-3.213h70.91C112.361,76.229,113.8,77.668,113.8,79.441L113.8,79.441z"/>
	<path d="M46.715,10.846c-10.644,0-19.272,8.628-19.272,19.272s8.628,19.273,19.272,19.273c0.581,0,1.159-0.027,1.734-0.078
		c0.535-0.049,1.066-0.121,1.592-0.215l0.203-0.035c9.786-1.827,16.571-10.804,15.656-20.717
		C64.984,18.434,56.669,10.849,46.715,10.846z"/>
	<path fill="#FFFFFF" d="M45.167,48.037h-0.045c-0.5-0.044-0.996-0.111-1.487-0.196c-0.028-0.005-0.056-0.009-0.084-0.014
		c-0.48-0.086-0.956-0.193-1.427-0.316l-0.114-0.029c-0.459-0.125-0.914-0.271-1.361-0.431c-0.046-0.017-0.093-0.031-0.139-0.049
		c-0.439-0.161-0.87-0.341-1.294-0.537c-0.053-0.022-0.105-0.046-0.158-0.07c-0.416-0.193-0.824-0.411-1.225-0.638
		c-0.056-0.033-0.113-0.065-0.17-0.097c-0.394-0.23-0.778-0.476-1.156-0.737c-0.058-0.039-0.115-0.078-0.172-0.117
		c-0.371-0.263-0.732-0.543-1.085-0.835l-0.096-0.086v-5.415c0.004-3.901,3.166-7.062,7.066-7.066h8.993
		c3.901,0.005,7.062,3.165,7.067,7.066v5.416l-0.085,0.071c-0.359,0.301-0.728,0.584-1.106,0.852
		c-0.05,0.035-0.101,0.069-0.151,0.104c-0.382,0.265-0.773,0.515-1.174,0.749c-0.05,0.029-0.102,0.058-0.151,0.086
		c-0.407,0.231-0.82,0.449-1.241,0.646c-0.049,0.022-0.097,0.044-0.146,0.064c-0.428,0.197-0.863,0.379-1.305,0.54
		c-0.044,0.018-0.088,0.031-0.128,0.047c-0.45,0.161-0.906,0.307-1.368,0.432l-0.11,0.027c-0.472,0.125-0.947,0.232-1.429,0.318
		c-0.027,0.006-0.055,0.01-0.083,0.014c-0.492,0.085-0.989,0.152-1.489,0.196h-0.045c-0.514,0.045-1.028,0.068-1.549,0.068
		C46.198,48.1,45.679,48.081,45.167,48.037z"/>
	<path fill="#D89FDE" d="M59.563,42.695v-4.226c-0.005-4.611-3.741-8.346-8.352-8.352h-8.993c-4.61,0.006-8.346,3.74-8.351,8.352
		v4.225c-6.919-7.062-6.842-18.383,0.172-25.351c7.014-6.966,18.336-6.966,25.351,0C66.405,24.311,66.482,35.632,59.563,42.695
		L59.563,42.695z"/>
	<path d="M46.715,15.985c-3.548,0-6.424,2.876-6.424,6.424c0,3.548,2.876,6.424,6.424,6.424s6.424-2.876,6.424-6.424
		C53.135,18.863,50.261,15.989,46.715,15.985z"/>
	<path fill="#FFFFFF" d="M46.715,27.548c-2.838,0-5.139-2.301-5.139-5.14s2.301-5.139,5.139-5.139c2.839,0,5.139,2.301,5.139,5.139
		C51.851,25.246,49.552,27.545,46.715,27.548z"/>
</g>
</svg>
